Coordinates
version=1
nRows=11
nColumns=63
inDegrees=yes

Units are S.I. units (second, meters, Newtons, ...)
If the header above contains a line with 'inDegrees', this indicates whether rotational values are in degrees (yes) or radians (no).

endheader
time	pelvis_tilt	pelvis_list	pelvis_rotation	pelvis_tx	pelvis_ty	pelvis_tz	hip_flexion_r	hip_adduction_r	hip_rotation_r	knee_angle_r	knee_angle_r_beta	ankle_angle_r	subtalar_angle_r	mtp_angle_r	hip_flexion_l	hip_adduction_l	hip_rotation_l	knee_angle_l	knee_angle_l_beta	ankle_angle_l	subtalar_angle_l	mtp_angle_l	L5_S1_Flex_Ext	L5_S1_Lat_Bending	L5_S1_axial_rotation	L4_L5_Flex_Ext	L4_L5_Lat_Bending	L4_L5_axial_rotation	L3_L4_Flex_Ext	L3_L4_Lat_Bending	L3_L4_axial_rotation	L2_L3_Flex_Ext	L2_L3_Lat_Bending	L2_L3_axial_rotation	L1_L2_Flex_Ext	L1_L2_Lat_Bending	L1_L2_axial_rotation	L1_T12_Flex_Ext	L1_T12_Lat_Bending	L1_T12_axial_rotation	Abs_r3	Abs_r2	Abs_r1	Abs_t1	Abs_t2	neck_flexion	neck_bending	neck_rotation	arm_flex_r	arm_add_r	arm_rot_r	elbow_flex_r	pro_sup_r	wrist_flex_r	wrist_dev_r	arm_flex_l	arm_add_l	arm_rot_l	elbow_flex_l	pro_sup_l	wrist_flex_l	wrist_dev_l
2.650000	3.943802	1.056749	77.109330	0.181633	0.778958	0.779272	1.224884	2.458443	9.026435	9.521345	0.166179	31.326794	11.965214	0.000000	0.410093	-4.014668	-15.215274	11.334616	0.197826	32.521784	1.313539	0.000000	-0.230988	-0.854500	3.566880	-0.428968	-1.136485	3.789810	-0.379490	-2.077632	3.789810	-0.263996	-2.077632	3.121020	-0.214495	-1.742497	2.898090	-0.131987	-1.323621	2.675160	-1.649924	-9.666278	19.837917	0.000000	0.000000	9.831819	12.278694	-21.179540	-23.505597	-38.244959	-22.639929	149.879857	82.223816	4.356043	-8.923498	178.840887	-151.741132	148.512397	149.891760	87.451343	38.615823	-6.892651
2.666667	4.173696	1.022683	77.640417	0.180856	0.778298	0.780105	1.206377	2.598826	8.913013	9.470123	0.165285	31.120469	11.900084	0.000000	0.476363	-4.208180	-14.622174	11.360211	0.198273	32.322243	0.876163	0.000000	-0.236445	-0.832430	3.393395	-0.439102	-1.107132	3.605483	-0.388456	-2.023970	3.605483	-0.270233	-2.023970	2.969221	-0.219563	-1.697491	2.757134	-0.135105	-1.289434	2.545047	-1.688904	-9.416615	18.873048	0.000000	0.000000	10.403220	11.653139	-21.009525	-23.727185	-37.125163	-23.643475	149.871106	82.313886	5.605757	-9.569389	177.628020	-152.296167	148.426061	149.881402	87.513299	36.651630	-7.301748
2.683333	4.401446	0.980160	78.206537	0.180213	0.777180	0.781001	1.273933	2.739661	8.721294	9.536548	0.166444	31.079827	11.979291	0.000000	0.689303	-4.416548	-13.825220	11.576458	0.202047	32.329006	0.262891	0.000000	-0.242856	-0.808034	3.166556	-0.451008	-1.074685	3.364466	-0.398988	-1.964653	3.364466	-0.277560	-1.964653	2.770737	-0.225516	-1.647743	2.572827	-0.138768	-1.251644	2.374917	-1.734695	-9.140640	17.611435	0.000000	0.000000	10.992411	11.037080	-20.366964	-23.736115	-35.391293	-24.140405	149.847103	82.209189	7.015854	-9.612150	175.778286	-153.572087	147.535859	149.864902	87.672916	34.384060	-7.694596
2.700000	4.602568	0.928489	78.813706	0.179744	0.775686	0.781912	1.426401	2.859180	8.441008	9.708194	0.169440	31.204041	12.208446	0.000000	1.058588	-4.609967	-12.796030	11.975379	0.209010	32.537569	-0.517236	0.000000	-0.249339	-0.784902	2.887899	-0.463048	-1.043920	3.068392	-0.409640	-1.908412	3.068392	-0.284970	-1.908412	2.526911	-0.231537	-1.600573	2.346418	-0.142473	-1.215814	2.165924	-1.781007	-8.878974	16.061627	0.000000	0.000000	11.570781	10.432670	-19.285966	-23.504009	-33.243468	-23.926143	149.811990	81.766749	8.299479	-9.061179	173.404832	-155.490228	145.626408	149.846583	87.934176	32.405607	-8.057146
2.716667	4.755676	0.868969	79.433726	0.179513	0.773940	0.782778	1.652330	2.943716	8.154992	9.961974	0.173869	31.468595	12.511316	0.000000	1.568739	-4.766498	-11.592889	12.528098	0.218657	32.935450	-1.398601	0.000000	-0.255112	-0.767107	2.569335	-0.473769	-1.020253	2.729918	-0.419124	-1.865144	2.729918	-0.291568	-1.865144	2.248168	-0.236897	-1.564285	2.087585	-0.145771	-1.188249	1.927001	-1.822242	-8.677670	14.289870	0.000000	0.000000	12.136739	9.866976	-17.859225	-23.021412	-30.894186	-22.902178	149.771003	81.045409	9.207540	-8.068116	170.734239	-157.883318	142.519571	149.829878	88.250449	31.237709	-8.426998
2.733333	4.843122	0.802135	80.068053	0.179509	0.772074	0.783549	1.943665	2.965700	7.737863	10.282566	0.179465	31.882509	13.049734	0.000000	2.194984	-4.857842	-10.212588	13.188846	0.230189	33.474029	-2.387959	0.000000	-0.259494	-0.758496	2.216125	-0.481907	-1.008800	2.354633	-0.426323	-1.844208	2.354633	-0.296576	-1.844208	1.939109	-0.240967	-1.546725	1.800601	-0.148275	-1.174911	1.662094	-1.853543	-8.580261	12.325421	0.000000	0.000000	12.675396	9.406516	-16.158133	-22.251627	-28.531052	-21.145519	149.728409	79.955292	9.832807	-6.581986	168.021357	-160.561040	138.089026	149.816268	88.641909	31.146359	-9.086518
2.750000	4.866267	0.727193	80.657811	0.179772	0.770229	0.784182	2.272003	2.941437	7.391348	10.618410	0.185326	32.382937	13.635424	0.000000	2.893462	-4.893167	-8.804357	13.908927	0.242757	34.123017	-3.391353	0.000000	-0.262208	-0.761518	1.876421	-0.486947	-1.012819	1.993697	-0.430782	-1.851556	1.993697	-0.299678	-1.851556	1.641868	-0.243486	-1.552888	1.524592	-0.149826	-1.179592	1.407315	-1.872926	-8.614447	10.436088	0.000000	0.000000	13.222038	9.022211	-14.536147	-21.420400	-26.311727	-18.932049	149.688017	78.964398	9.933148	-5.165303	165.644647	-163.276937	132.726939	149.801167	88.920323	32.071639	-9.847935
2.766667	4.836682	0.648551	81.187127	0.180251	0.768550	0.784635	2.598239	2.887699	7.270409	10.918910	0.190571	32.892284	14.068674	0.000000	3.609670	-4.883389	-7.469247	14.627173	0.255292	34.831918	-4.333037	0.000000	-0.262965	-0.775391	1.575792	-0.488353	-1.031270	1.674279	-0.432026	-1.885286	1.674279	-0.300543	-1.885286	1.378818	-0.244190	-1.581178	1.280331	-0.150258	-1.201081	1.181844	-1.878334	-8.771382	8.764081	0.000000	0.000000	13.752433	8.729271	-13.122137	-20.619798	-24.362783	-16.615069	149.652540	78.045953	9.788899	-3.798245	163.876893	-165.850485	126.811798	149.778401	88.920062	34.091333	-10.630376
2.783333	4.771711	0.569003	81.684974	0.180809	0.767148	0.784916	2.894704	2.810172	7.254982	11.150437	0.194612	33.384337	14.441660	0.000000	4.309336	-4.831691	-6.175690	15.303120	0.267090	35.525490	-5.258912	0.000000	-0.262452	-0.797474	1.327907	-0.487399	-1.060641	1.410901	-0.431182	-1.938979	1.410901	-0.299956	-1.938979	1.161919	-0.243713	-1.626210	1.078924	-0.149965	-1.235288	0.995930	-1.874666	-9.021190	7.385421	0.000000	0.000000	14.244672	8.493469	-12.031497	-19.929950	-22.843300	-14.408613	149.624261	77.120404	9.389827	-2.563018	162.880762	-168.128130	120.805213	149.746645	88.513513	37.143395	-11.284466
2.800000	4.673486	0.484562	82.112190	0.181411	0.766122	0.785037	3.141452	2.715401	7.514823	11.273795	0.196765	33.765937	14.534504	0.000000	4.949749	-4.748842	-5.087719	15.884975	0.277245	36.154854	-6.045422	0.000000	-0.259361	-0.826922	1.157644	-0.481660	-1.099807	1.229996	-0.426105	-2.010579	1.229996	-0.296424	-2.010579	1.012938	-0.240843	-1.686260	0.940585	-0.148199	-1.280903	0.868233	-1.852593	-9.354311	6.438467	0.000000	0.000000	14.671974	8.303962	-11.345307	-19.441112	-21.834918	-12.608924	149.603890	76.125491	9.050598	-1.421205	162.706912	-169.972955	115.180545	149.704590	87.808729	40.985448	-11.836278
2.816667	4.545497	0.399672	82.484367	0.181949	0.765554	0.785068	3.313990	2.600239	8.077575	11.251475	0.196375	33.970263	14.244447	0.000000	5.501531	-4.636359	-4.268658	16.338450	0.285160	36.663082	-6.628293	0.000000	-0.254458	-0.861981	1.064491	-0.472553	-1.146435	1.131022	-0.418048	-2.095821	1.131022	-0.290820	-2.095821	0.931430	-0.236289	-1.757752	0.864899	-0.145397	-1.335209	0.798368	-1.817565	-9.750902	5.920380	0.000000	0.000000	14.980356	8.119305	-11.069224	-19.123818	-21.440425	-11.271068	149.592044	75.037624	8.756564	-0.345510	163.246321	-171.266404	110.305645	149.655107	86.928368	45.173915	-12.363650
